# xmcd
# 
# Track frame offsets:
#     150
#     6496
#     25435
#     47844
#     68663
#     86975
#     110157
#     138495
#     156329
#     173801
#     198974
#     216570
# 
# Disc length: 3207
# 
# Revision: 3
# Processed by: cddbd v1.5.2PL0 Copyright (c) Steve Scherf et al.
# Submitted via: fre:ac v1.0.17
# 
DISCID=b70c850c
DTITLE=R. Kelly - Epic
DYEAR=2010
DGENRE=R&B
TTITLE0=Heal It (Prelude)
TTITLE1=Sign Of A Victory (The Official 2010 FIFA World Cup Anthem) (feat. Soweto Spiritual Singers)
TTITLE2=I Believe
TTITLE3=The World's Greatest
TTITLE4=Victory
TTITLE5=Peace
TTITLE6=If I Could Turn Back The Hands Of Time
TTITLE7=Fireworks
TTITLE8=Spirit
TTITLE9=I'm Your Angel (Duet with Céline Dion)
TTITLE10=Can You Feel It
TTITLE11=I Believe I Can Fly
EXTD=
EXTT0=
EXTT1=
EXTT2=
EXTT3=
EXTT4=
EXTT5=
EXTT6=
EXTT7=
EXTT8=
EXTT9=
EXTT10=
EXTT11=
PLAYORDER=
